<?xml version="1.0" encoding="utf-8"?>
<!-- Generator: Adobe Illustrator 25.2.3, SVG Export Plug-In . SVG Version: 6.00 Build 0)  -->
<svg version="1.1" id="Layer_1" xmlns="http://www.w3.org/2000/svg" xmlns:xlink="http://www.w3.org/1999/xlink" x="0px" y="0px"
	 viewBox="0 0 32 32" style="enable-background:new 0 0 32 32;" xml:space="preserve">
<style type="text/css">
	.st0{fill:#444444;}
</style>
<g id="surface1">
	<path class="st0" d="M28.7,14.6l-5.7,5.7c-3.1,3.1-8.2,3.1-11.3,0c-0.5-0.5-0.9-1-1.2-1.6l2.6-2.6c0.1-0.1,0.3-0.2,0.4-0.3
		c0.2,0.6,0.5,1.2,1,1.7c1.6,1.6,4.1,1.6,5.7,0l5.7-5.7c1.6-1.6,1.6-4.1,0-5.7c-1.6-1.6-4.1-1.6-5.7,0l-2,2
		c-1.6-0.6-3.4-0.8-5.1-0.6l4.3-4.3c3.1-3.1,8.2-3.1,11.3,0C31.9,6.4,31.9,11.5,28.7,14.6z M13.8,23.9l-2,2c-1.6,1.6-4.1,1.6-5.7,0
		c-1.6-1.6-1.6-4.1,0-5.7l5.7-5.7c1.6-1.6,4.1-1.6,5.7,0c0.5,0.5,0.8,1.1,1,1.7c0.1-0.1,0.3-0.2,0.4-0.3l2.6-2.6
		c-0.3-0.6-0.7-1.1-1.2-1.6c-3.1-3.1-8.2-3.1-11.3,0l-5.7,5.7c-3.1,3.1-3.1,8.2,0,11.3c3.1,3.1,8.2,3.1,11.3,0l4.3-4.3
		C17.2,24.7,15.4,24.5,13.8,23.9z"/>
</g>
</svg>
